{"title":"Rio.2011.R5.LiNE.x264.Feel-Free","uid":6372015,"size":981355461,"categoryP":"video","categoryS":"movies","magnet":"?xt=urn:btih:d73a6776b01318338f340bd78b24a397974e005d&amp;dn=Rio.2011.R5.LiNE.x264.Feel-Free&amp;tr=udp%3A%2F%2Ftracker.openbittorrent.com%3A80&amp;tr=udp%3A%2F%2Fopen.demonii.com%3A1337&amp;tr=udp%3A%2F%2Ftracker.coppersurfer.tk%3A6969&amp;tr=udp%3A%2F%2Fexodus.desync.com%3A6969","seeders":0,"leechers":1,"uploader":"qwersd","files":-1,"time":1304710719,"description":"Genre:Animation | Adventure | Comedy\nLanguage:English\nIMDb: http://www.imdb.com/title/tt1436562/\nSource:DVD ELEKTRI4KA/R5 LINE IMAGINE.Thanks!\nSubtitles:Romana\n\nFormat : MPEG-4\nFormat profile : Base Media\nCodec ID : isom\nFile size : 934 MiB\nDuration : 1h 31mn\nOverall bit rate : 1 420 Kbps\n\nVideo\nFormat profile : &lt;a class=&quot;__cf_email__&quot; href=&quot;/cdn-cgi/l/email-protection&quot; data-cfemail=&quot;723a1b151a323e465c43&quot;&gt;[email&amp;#160;protected]&lt;/a&gt;&lt;script cf-hash='f9e31' type=&quot;text/javascript&quot;&gt;\n/* &lt;![CDATA[ */!function(){try{var t=&quot;currentScript&quot;in document?document.currentScript:function(){for(var t=document.getElementsByTagName(&quot;script&quot;),e=t.length;e--;)if(t[e].getAttribute(&quot;cf-hash&quot;))return t[e]}();if(t&amp;&amp;t.previousSibling){var e,r,n,i,c=t.previousSibling,a=c.getAttribute(&quot;data-cfemail&quot;);if(a){for(e=&quot;&quot;,r=parseInt(a.substr(0,2),16),n=2;a.length-n;n+=2)i=parseInt(a.substr(n,2),16)^r,e+=String.fromCharCode(i);e=document.createTextNode(e),c.parentNode.replaceChild(e,c)}}}catch(u){}}();/* ]]&gt; */&lt;/script&gt;\nFormat settings, CABAC : Yes\nFormat settings, ReFrames : 3 frames\nCodec ID : avc1\nCodec ID/Info : Advanced Video Coding\nDuration : 1h 31mn\nBit rate mode : Variable\nBit rate : 1 200 Kbps\nMaximum bit rate : 4 520 Kbps\nWidth : 720 pixels\nHeight : 304 pixels\nDisplay aspect ratio : 2.35:1\nFrame rate mode : Constant\nFrame rate : 25.000 fps\nColor space : YUV\nChroma subsampling : 4:2:0\nBit depth : 8 bits\nScan type : Progressive\nBits/(Pixel*Frame) : 0.219\nStream size : 784 MiB (84%)\nWriting library : x264\n\nAudio\nID : 2\nFormat : AAC\nFormat/Info : Advanced Audio Codec\nFormat version : Version 4\nFormat profile : LC\nFormat settings, SBR : No\nCodec ID : 40\nDuration : 1h 31mn\nBit rate mode : Variable\nBit rate : 224 Kbps\nMaximum bit rate : 273 Kbps\nChannel(s) : 2 channels\nChannel positions : Front: L R\nSampling rate : 44.1 KHz\nStream size : 147 MiB (16%)\n\n\nPlot:\nWhen Blu, a domesticated macaw from small-town Minnesota, meets the fiercely independent Jewel, he takes off on an adventure to Rio de Janeiro with this bird of his dreams.\n\n\nScreens:\n &lt;a href=&quot;\nhttp://shareimage.org/images/k3ls2ka7hg2vwlys1pah.png&quot; rel=&quot;nofollow&quot; target=&quot;_NEW&quot;&gt;\nhttp://shareimage.org/images/k3ls2ka7hg2vwlys1pah.png&lt;/a&gt; &lt;a href=&quot;\nhttp://shareimage.org/images/s4c94wtnmk0wdksym88l.png&quot; rel=&quot;nofollow&quot; target=&quot;_NEW&quot;&gt;\nhttp://shareimage.org/images/s4c94wtnmk0wdksym88l.png&lt;/a&gt; &lt;a href=&quot;\nhttp://shareimage.org/images/k54hbqxenueszv6y1zo.png&quot; rel=&quot;nofollow&quot; target=&quot;_NEW&quot;&gt;\nhttp://shareimage.org/images/k54hbqxenueszv6y1zo.png&lt;/a&gt; &lt;a href=&quot;\nhttp://shareimage.org/images/ld2icroevy7cpkaopyjw.png&quot; rel=&quot;nofollow&quot; target=&quot;_NEW&quot;&gt;\nhttp://shareimage.org/images/ld2icroevy7cpkaopyjw.png&lt;/a&gt; &lt;a href=&quot;\nhttp://shareimage.org/images/4do1fgqyyi8sg0xosyc9.png&quot; rel=&quot;nofollow&quot; target=&quot;_NEW&quot;&gt;\nhttp://shareimage.org/images/4do1fgqyyi8sg0xosyc9.png&lt;/a&gt;\n\nGreets:\n\nINK,CRYS,IMAGINE,LKRG,FXG,3Li,FLAWL3SS,TA,iLLUSiON,ViSiON,DTRG SAFCuk009,LU,TheFalcon007,MYSTiC,PrisM,Noir,WBZ,LAP,Rx,Kingdom,SAFCuk009+Fabreezy,HDLiTE,TWiZTED,ExtraTorrentRG.ELEKTRI4KA,MAGNAT,CM8\nAnd to all the other p2p grps past and present.","torrent":{"xt":"urn:btih:d73a6776b01318338f340bd78b24a397974e005d","amp;dn":"Rio.2011.R5.LiNE.x264.Feel-Free","amp;tr":["udp%3A%2F%2Ftracker.openbittorrent.com%3A80","udp%3A%2F%2Fopen.demonii.com%3A1337","udp%3A%2F%2Ftracker.coppersurfer.tk%3A6969","udp%3A%2F%2Fexodus.desync.com%3A6969"],"infoHash":"d73a6776b01318338f340bd78b24a397974e005d","infoHashBuffer":{"type":"Buffer","data":[215,58,103,118,176,19,24,51,143,52,11,215,139,36,163,151,151,78,0,93]},"announce":[],"urlList":[]}}